<svg xmlns="http://www.w3.org/2000/svg" viewBox="0 0 202.1 99.8"><defs><style>.cls-1{fill:#df0209;}</style></defs><title>abused-restored-logo</title><g id="Layer_2" data-name="Layer 2"><g id="Layer_1-2" data-name="Layer 1"><path d="M29.94,2.9c-3.2,1.6-5.8,3.3-5.8,3.9s-.4.9-.8.6c-1.2-.7-10.5,3.9-12.6,6.3-1.1,1.2-1.6,2.4-1.2,2.8s1.6-.3,2.6-1.7c1.6-2,2-2.2,2-.8a1.69,1.69,0,0,0,1.6,1.8c1,0,1.4.7,1.2,2-.2,1,.2,1.9.7,2s1.1-.8,1.3-1.8c.3-1.9,6.4-4.8,9.4-4.3,1.8.2,9.3-3.3,10.2-4.8.3-.5,1.6-.7,2.8-.3,1.4.3,1.9.2,1.4-.7-.4-.6-1.1-.9-1.5-.6s-.6-.7-.3-2,.8-2.2,1.2-2a1.1,1.1,0,0,0,1.5-.5c.4-.6-.6-1-2.4-1-1.6,0-3.3-.5-3.6-1C36.84-.5,36.54-.5,29.94,2.9Zm4.7.8c-.3.5.2,1.6,1,2.4,2.1,2.1,2,2.3-2.5,4.1-5,2-4.9,2-4.3-.4.4-1.5,0-2-1.3-2-2.6,0-.3-2.1,3.9-3.7S35.34,2.6,34.64,3.7Zm4.5,1.7c0,1.7-2.2,1.4-2.8-.4-.2-.7.3-1.2,1.2-1.2A1.58,1.58,0,0,1,39.14,5.4Zm-15.6,5.1c.7,1.6-.8,3.3-3,3.3-2,0-2.4-2.9-.6-3.9C22.34,8.5,22.84,8.6,23.54,10.5Zm3.6-.7a1,1,0,0,1-1,1,1.08,1.08,0,0,1-1-1,1,1,0,0,1,1-1A.94.94,0,0,1,27.14,9.8Zm-9.5,4c.3.5.2,1-.4,1a2.34,2.34,0,0,1-1.6-1c-.3-.6-.2-1,.4-1A2,2,0,0,1,17.64,13.8Z"/><path d="M48.14,2.8c0,.5.9,1.2,2,1.5,2.8.9,2.6,4.2-.2,4.8q-2.25.45,1.2.6c4.7.1,13.8,4.2,14.6,6.4.6,2,5.2,5.3,6.1,4.3.3-.3-.6-1.5-2.1-2.7-2.5-1.9-2.5-2.2-1-3.4.9-.6,1.4-1.7,1-2.3-1-1.7,1.6-1.5,4.1.3,1.3.9,2.4,1.1,2.8.6.8-1.5-5.4-4.4-8.1-3.8-1.3.2-2.4.1-2.4-.3s-2.8-1.8-6.2-3C49.84,2.3,48.14,1.9,48.14,2.8Zm13,5.6c3.7,1.5,5.4,3.4,3,3.4-1.6,0-8-3.3-8-4.2C56.14,6.5,56.54,6.6,61.14,8.4Z"/><path d="M102.64,8.1c-1.2,1.9-2.2,2.3-4.6,1.9-2.2-.3-3-.1-2.5.7a3.57,3.57,0,0,0,2.7,1.1c1.6,0,1.8.3,1,1.8-.7,1.3-.7,2.2,0,2.9s.2,1.3-1.5,1.7c-3.5.9-3.3,2.5.2,1.8,3.2-.6,10.2-6.1,10.2-8.1,0-1.1-.5-.9-2.1.5s-2.2,1.6-2.9.4c-.6-1-.3-2.1,1-3.5,2.2-2.3,2.5-3.5,1-3.5C104.64,5.8,103.54,6.8,102.64,8.1Zm-.5,6.3c0,.8-.5,1.2-1,.9a1.22,1.22,0,0,1-.5-1.6C101.54,12.3,102.14,12.6,102.14,14.4Z"/><path d="M89.14,10.8a14.52,14.52,0,0,1-5.7,1c-3.1,0-4.1.4-3.7,1.3s1.6,1.2,3.2,1c2.1-.3,2.9.1,3.9,2.1,1.1,2.5,1,2.6-2.7,2.6-2.2,0-4.2.4-4.5,1-.7,1.2,5.2,1.2,11,.1l4-.8L91.94,18c-2.9-1.2-4-2.6-1.3-1.6,1.7.7,2.1-1.1.5-2.1s-1.1-2.5,1-2.5c1.1,0,2-.5,2-1C94.14,9.5,91.14,9.5,89.14,10.8Z"/><path class="cls-1" d="M34.14,16.4a25.65,25.65,0,0,0-5.4,5.5q-3,3.9-5.4,3.9c-3.4,0-6.2,1.8-6.2,4a1.8,1.8,0,0,0,2,2c1.1,0,2-.6,2-1.4,0-1.5,1.8-3.1,2.5-2.4.3.2-.4,2.8-1.5,5.6-2.5,6.7-2.6,9.2-.1,9.2,1.4,0,2.1-1,2.6-3.7,1-5.4,3.5-11.3,4.9-11.3,3,.1,3.7,1.6,2.7,6.1-1.7,7.2-1.4,9.1,1.1,8.7,2-.3,2.5-1.5,4.3-10.8,1.2-5.8,2.4-12,2.8-13.8.6-2.8.4-3.2-1.6-3.2A11.94,11.94,0,0,0,34.14,16.4Zm.4,6.3c-.5,3-1.1,4.1-2.5,4.1a3.29,3.29,0,0,1-2.3-.8c-.6-1,4.3-8.6,5-7.9C35,18.3,34.94,20.4,34.54,22.7Z"/><path d="M74.14,17.2c0,2.3,2.6,4.3,3.9,3,.3-.4,0-.9-.6-1.1a2.66,2.66,0,0,1-1.3-2.4c0-1-.4-1.9-1-1.9S74.14,15.9,74.14,17.2Z"/><path class="cls-1" d="M42.74,24a116.46,116.46,0,0,0-2.3,12c-.5,4.4-.4,4.8,2,5.9,5.8,2.6,11.7-3.4,11.7-11.9,0-4.5-1.9-6.7-5.1-5.7-1.8.6-2,.4-1.5-1.4.3-1.2.9-3,1.2-4.1.4-1.6.1-2-1.9-2C44.54,16.8,44.24,17.5,42.74,24Zm7.8,7.6c-.1,4.3-2.8,8.7-4.6,7.6-.6-.4-.7-2.6-.3-5.1.9-6.3,1.5-7.5,3.4-7.1C50.24,27.3,50.64,28.4,50.54,31.6Z"/><path class="cls-1" d="M105.84,17.5a19.89,19.89,0,0,0-1.2,4c-.6,2.9-.9,3.2-3.4,2.7-3.5-.7-7.8,3.5-8.7,8.5a31,31,0,0,1-1,4.9c-.5,1.8-4,1-3.6-.9.2-.8.6-3.7.9-6.5.6-5.9.2-6.2-7.7-6l-4.4.1-1.3,6.5c-1.4,7-3.7,10.7-4.9,7.7-.3-.9-.1-3.9.5-6.7,1.7-7.8,1.7-7.8-4.1-7.8-6.2,0-9.1,2.4-10.8,8.9-1,3.6-1,4.9.2,6.9,1.7,3.2,4.4,3.7,7,1.4,1.8-1.8,2-1.8,2.9-.1a3.62,3.62,0,0,0,5.7.5c.9-.9,1.2-.9,1.2,0,0,.7,1.1,1.2,2.4,1.2,2.1,0,2.6-.7,3.5-5a56,56,0,0,0,1.1-6.4,7.45,7.45,0,0,1,1.5-3.2c2.3-3,3.3-.2,2.2,6.1-.8,4.1-.7,5.8.3,7a3.87,3.87,0,0,0,6,0c1.2-1.4,1.5-1.4,3,0,2.1,1.9,4.1,1.9,6.5.1,1.6-1.2,2.1-1.1,3.3.1,1.4,1.3,4.7,1,6.5-.7.5-.4,2.2-.1,3.8.9,2.6,1.4,3.1,1.5,5.6.1a11.52,11.52,0,0,0,4.4-6c1.8-4.8,4.6-7.1,3.6-2.9-.3,1.3-.9,4.1-1.2,6.1-.7,3.5-.6,3.8,1.7,3.8,2.1,0,2.5-.7,3.7-6.2,1.4-7,2.7-9.8,4.3-9.8.7,0,.8,2.1.3,6.5-.5,4.6-.3,7,.5,8a3.87,3.87,0,0,0,6,0c1-1.2,1.5-1.2,3.6.1,2.6,1.8,7.5,1.2,9.5-1.2,1-1.3,1.4-1.2,3.1.6,2.2,2.4,3.6,2.5,6.5.5,1.8-1.3,2.2-1.3,3.3,0a4.37,4.37,0,0,0,2.7,1.5c1.8,0,6.3-4.5,6.3-6.2q-.15-1.2-1.5.6c-.8,1-2.1,1.6-2.9,1.3-1.2-.5-1.1-2.1.9-11.1l2.2-10.6h-2.4c-2.4,0-2.7.4-3.7,5.1-.5,2.2-1,2.5-3.1,2.2-3.3-.7-8.1,4.2-9,9.1-.9,4.4-4.7,7.6-7.3,6-2.7-1.8-2.4-3.1,1.3-5.2,4.3-2.6,6.4-6.5,4.5-8.7-3-3.6-10.3.1-11.5,5.9-.3,1.4-.7,3.7-1,5.1-.4,1.7-1.2,2.5-2.6,2.5-1.8,0-2-.4-1.3-3.3,2.1-8.6-.1-13.8-4.6-10.9-1.3.8-2,.9-2,.1,0-2.2-4.4-.4-5,2.1-.7,3-4,4.1-4,1.3a4.77,4.77,0,0,0-1.2-3.1c-3.7-3.7-11.1,1.5-12.3,8.5-.7,4.3-2.8,7.2-3.9,5.4-.3-.5.3-5.3,1.4-10.6s2-10.1,2-10.6C110.14,16.6,106.44,16.5,105.84,17.5Zm-39.3,9.2c1,1.6-1.5,11.2-3.1,11.8-2.7,1-3.5-1.2-2.3-5.8C62.74,26.7,65,24.2,66.54,26.7Zm36.2,4.3c-1.2,8.9-6.3,11.9-5.3,3.1.4-4.2,2.9-8.3,5-8.3C103,25.8,103.14,27.8,102.74,31Zm18,.4c-.3,5.7-2.4,9.3-4.6,7.9-2.4-1.5,1.1-13.5,4-13.5C120.64,25.8,120.94,28.3,120.74,31.4Zm33.4-4c0,2.5-1.9,5.4-3.6,5.4-1.1,0-1.4-.6-.8-2.3C151,26.3,154.14,24,154.14,27.4Zm14.2,1.5c-.9,6.7-2.3,9.9-4.4,9.9-1.8,0-2-.4-1.5-4,.6-4.7,3.3-9.3,5-8.7C168.14,26.3,168.54,27.6,168.34,28.9Z"/><path d="M7.64,20a13.79,13.79,0,0,1-2.7,4.4C2,27.7-.86,36,.24,38.1c1.1,1.9,3.5,2.3,4.1.5.2-.6,1.4.5,2.7,2.5s2.7,3.4,3.2,3.1.2-1.8-.9-3.6c-1.9-3-1.9-3,.4-7.3a30.07,30.07,0,0,1,4.4-6,6,6,0,0,0,2-3.3c0-1.2-.4-1.2-2,.3-1.8,1.6-2,1.6-2,.2a1.61,1.61,0,0,0-1.6-1.7c-1.2,0-1.5-.6-1-2.5C10.34,17.2,8.54,17,7.64,20Zm.1,12.3c-1.1,1.9-2.1,3.3-2.4,3s-1.1,0-1.9.7c-3.1,2.5-2.2-2,1.6-8,1.3-2.1,1.6-2.2,3-.8S9.44,29.1,7.74,32.3Z"/><path d="M176.74,44.3c.5,2,.3,2.4-1,1.9a1.61,1.61,0,0,0-2.2.9c-.5,1.3-1,1.1-3-1.1-1.3-1.5-2.4-2.1-2.4-1.4s1.3,2.6,2.9,4.1c4.1,3.8,6.4,9.6,4.8,12.1-.9,1.5-.9,2.2.1,3.2s1.2.8,1.2-.9.5-2,2.3-1.5c2.1.5,2.1.4.5-1.4-2.6-3-5.2-9.7-3.6-9.2.7.3,2,2.3,2.8,4.6s2,4.2,2.7,4.2,1.5.9,1.8,2,1.1,2,1.6,2c1.6,0,.9-2-1.6-4.6-1.4-1.4-2.5-3-2.5-3.7a13.93,13.93,0,0,0-1.5-4.1c-.8-1.5-1.2-3.2-.9-3.8.8-1.3-.4-5.8-1.6-5.8C176.54,41.8,176.34,42.9,176.74,44.3Z"/><path d="M59.54,44.8c-1.2.5-4.1,3.1-6.5,5.9-3.2,3.7-5.1,5.1-7,5.1-3.4,0-6.2,2.2-5.8,4.5.6,2.9,2.8,2.9,3.9.1.5-1.4,1.6-2.6,2.5-2.6,1.3,0,1.2.6-.5,3.9-2.7,5.5-4.1,12-2.9,14.3,1.5,2.9,3.9,2.2,3.9-1.1,0-3.5,3.7-15.8,5-16.6a4,4,0,0,1,2.9.4c1.7,1,1.8,1.4.6,6.6l-1.3,5.5,2.6-.6a21,21,0,0,0,2.9-.9c.2-.1,1.4-5.5,2.7-12.1C65.24,43.9,64.94,42.6,59.54,44.8Zm-.8,4.7c-.2,1-.7,3.2-1.1,4.9-.5,2.5-1,3.1-2.6,2.7-2.4-.7-2.4-1.6.4-5.8C57.84,47.6,59.64,46.7,58.74,49.5Z"/><path d="M70.44,46.5c-1.3.2-2.3.6-2.3.8s-.9,4.7-2,10-2,10.3-2,10.9,1.4,2.3,3.1,3.5c2.6,1.9,3.5,2.1,5.5,1.2,3.6-1.6,6.4-6.9,6.4-12.2s-1.8-7.5-5-6.6c-2,.5-2.1.2-1.4-3.9.3-2.4.5-4.3.3-4.3A17.19,17.19,0,0,1,70.44,46.5Zm4.7,14.3c0,4.6-1.8,9-3.6,9-2.2,0-2.4-1.5-1.3-7.4.9-4.4,1.6-5.6,3-5.6S75.14,57.6,75.14,60.8Z"/><path d="M144.14,46.8c-1.9.4-2.6,1.4-3,4-.5,3.2-.8,3.5-3.6,3.2-4-.4-7.7,3.3-9.4,9.4-1.4,4.8-4.8,8.1-7.5,7-2.3-.8-1.8-4.5.8-5.5,3.6-1.4,5.9-4.6,5.5-7.8-.2-2.3-.8-2.8-3.5-3.1-4.3-.4-7.9,3.1-9.5,9.2-1.4,5.2-2.8,6-2.8,1.7,0-1.5-.3-4.9-.6-7.5-.6-4-1-4.7-2.7-4.4-2.2.3-2.6,1-5.8,7.8-3.4,7.6-4.3,9-5.6,9-1.6,0-1.6-1.8.1-9.8l1.4-6.2h-2.8c-2.6,0-2.8.3-4,6.7-1.3,6.9-2.4,9.3-4.3,9.3-.9,0-.7-2.7.9-12.3.6-3.5.5-3.7-2-3.7-1.4,0-2.6.2-2.6.4s-.7,3.8-1.6,7.9c-2.1,10.5.3,14.4,6.3,10.2,1.8-1.3,2.2-1.3,3.3,0a3.94,3.94,0,0,0,5.8.3c1-1,1.7-1,3.1-.1,2.2,1.4,8.4.2,11-2.1,1.7-1.6,1.9-1.5,3.5.9,2.1,3.2,6.3,3.3,10,.4l2.7-2.2,1.5,2.2c1.8,2.5,4.1,2.7,7.1.6,1.8-1.3,2.2-1.3,3.3,0a4.37,4.37,0,0,0,2.7,1.5c1.9,0,7.8-5.9,6.8-6.8-.3-.4-1.1.1-1.6,1.1-1.2,2-3.9,2.3-3.9.3,0-.7.9-5.9,2.1-11.5s1.9-10.4,1.7-10.5S145.54,46.4,144.14,46.8Zm-19.8,11.6c-.4,2.2-3.9,6.1-4.7,5.2-1.1-1,2.4-8,3.7-7.5A2,2,0,0,1,124.34,58.4Zm15.2-1.8c.5.9-1.6,10.2-2.7,11.9a3.23,3.23,0,0,1-2.4,1.3c-1.3,0-1.5-.9-1.1-4.5C134,59.1,137.74,53.8,139.54,56.6Zm-34.7,12.9a3.08,3.08,0,0,1-3.3.9c-1.6-.6-1.6-.8-.4-1.6a4,4,0,0,0,1.6-2.7,20.72,20.72,0,0,1,.9-4.8c.9-3,.9-3,1.8,1.8C106.24,67.1,106.14,68.3,104.84,69.5Z"/><path d="M14.14,51.3c-6.1,3.9-9,8.2-9,13.4,0,4.7,3.6,11.9,6.9,13.5,5.9,3,12.8,3.1,12.8.2,0-1.1-1.3-1.3-5.7-.9-5.3.5-5.8.4-7.8-2.2-1.6-2-2.2-4.1-2.2-7.9,0-6.1,1.3-8.3,7.7-12.5,3.6-2.4,5.8-3.1,9.4-3.1,2.6,0,5.1.4,5.4,1a2.33,2.33,0,0,0,1.7,1c1.6,0-1.1-2.9-4.3-4.6C24.44,46.9,20,47.5,14.14,51.3Z"/><path d="M35.14,60a34.28,34.28,0,0,1-1,8.4c-.7,1.8-.7,3.1-.1,3.7,1.5,1.5,3.3-3.8,3.4-10,.1-3-.4-5.8-1.1-6.5C35.44,54.7,35.14,55.6,35.14,60Z"/><path d="M182.24,65.8a21.65,21.65,0,0,0-6,2.7c-3.4,2.6-7.3,9.7-6.9,12.5.3,2,.6,1.8,2.6-1.8,2.6-5,7-8,13.5-8.9,5.8-.9,9.6.5,12.6,4.6,3.9,5.3,3.7,7.9-.8,13-3.7,4.2-4.2,5.9-1.9,5.9.5,0,2.2-2.1,3.8-4.7,3.6-5.6,3.9-10.6,1-16.4C196.64,65.9,191,63.7,182.24,65.8Z"/><path class="cls-1" d="M56.74,71.8c-6.5,2-10.7,9-7.1,12,1.3,1.1,1.5.8,1.5-2,0-4.1,4.7-9,8.7-9,5.4,0,6.8,3.8,3.2,8.4-2.3,3-4.3,3.4-3.6.8,1.8-6.4,1.8-7.2-.2-7.2a4,4,0,0,0-3,1.7c-.6,1.3-5.1,21.1-5.1,22.8a6.05,6.05,0,0,0,2.1,0c2.7-.2,3.6-1.8,4.4-7.5.7-5.4,1.8-7.5,3.4-6.6,1.3.8,1.4,4.9.3,9.1-1.2,4-.5,5.5,2.5,5.5,1.8,0,2.4-.4,1.9-1.5-.3-.9,0-3.8.6-6.6.9-3.8.9-5.5,0-6.9s-.8-2.1.3-3c.8-.7,1.5-2.8,1.5-4.7,0-2.9-.5-3.6-3.5-4.9C60.84,70.6,60.74,70.6,56.74,71.8Z"/><path class="cls-1" d="M164.44,73.6c-1.6.2-2.3,1.2-2.8,4-.6,3.5-.8,3.7-4.2,3.7-3.1,0-4.1.6-6,3.4a12.82,12.82,0,0,0-2.3,5.7c0,2.6-4.5,6.6-6.9,6.2a3,3,0,0,1-1.9-2.4c-.2-1.6.5-2.5,2.8-3.4,3.3-1.4,5-3.7,5-6.9,0-5.6-9-3.8-11.5,2.3-2,4.7-1.9,10.1.2,12.1,1.9,2,6.6,1.4,9.4-1.1,1.6-1.4,1.9-1.4,3.8.5,2.5,2.5,3.9,2.6,6.2.5,1.6-1.4,2-1.5,4,0,2.4,1.6,5.2.8,7.6-2.3,1.9-2.4,1.5-3.6-.5-1.8-1.7,1.5-4.2,2.3-4.2,1.3,0-.2.9-4.9,2.1-10.5s1.9-10.5,1.7-10.9S165.64,73.4,164.44,73.6Zm-18.9,11.5c-.6,2.2-3.1,4.7-4.6,4.7-.9,0,.8-4.8,2.4-6.7S146.34,82.6,145.54,85.1Zm14.1,2.4c-.8,5.8-2.1,8.3-4,8.3-1,0-1.5-1.1-1.5-3.5,0-4.4,2.5-9.5,4.6-9.5C160.14,82.8,160.24,83.6,159.64,87.5Z"/><path class="cls-1" d="M100.14,76.8a24,24,0,0,0-1.6,5.8c-1.6,12.6-3.9,14.6-4.9,4.2-.6-6.4-.9-7-3-7-1.9,0-2.6,1-4.1,5.2-3.3,9.2-11.3,15.2-12.2,9.1a2.28,2.28,0,0,1,1.8-2.8c3-1,6-4.5,6-7.2,0-4.7-6.8-4.8-10.3-.1-2.8,3.8-3.5,11.9-1.1,14.2,1.9,2,6.9,1.6,9.2-.8,1.2-1.2,1.7-1.1,3.3.5,2.5,2.5,4.9,2.4,9.2-.5,3.4-2.4,3.6-2.4,4.2-.6.9,2.8,4.2,3.4,7.2,1.5,1.6-1.1,2.8-1.3,3.2-.7s1.8,1.3,3.2,1.7c3.5.9,7.6-2.6,8.9-7.6.7-2.4,1.7-3.9,2.6-3.9,1.1,0,1.4.5,1,1.7a40.41,40.41,0,0,0-1.3,5.8c-.5,3.9-.4,4.2,1.8,4s2.5-1,3.9-7.6c1.1-5.5,2-7.5,3.3-7.7.9-.2,1.7.1,1.7.7,0,1.5,2.7,1.4,3.2-.2,1.3-3.2-2.4-5.1-5-2.5-.9.9-1.2.9-1.2,0,0-.7-1.1-1.2-2.4-1.2a2.7,2.7,0,0,0-3,2.4c-.7,2.7-3.6,4.4-3.6,2.1a6.57,6.57,0,0,0-1.9-3.4c-4-4-10.7.8-12,8.5-.6,3.4-3.3,6.6-4.6,5.3-1-1,1.8-12.4,3.3-13.7q1.65-1.2.3-1.2c-.9,0-1.1-.9-.6-3,.6-2.6.4-3-1.4-3A4,4,0,0,0,100.14,76.8ZM79,85.9c-1.2,2.4-2.8,3.9-4.1,3.9s-.9-1.3,1.3-4.9c1.4-2.3,2.4-3,3.1-2.3S79.94,84.3,79,85.9Zm37.6,1.9c-.2,5.1-1.7,8-4.1,8-1.9,0-1.8-6.3.1-10C115.14,81,116.94,82,116.64,87.8Zm-27.5,2.3c0,4.3-1.3,6.7-3.7,6.7a1.44,1.44,0,0,1-1.3-1.5c0-.8.5-1.5,1-1.5a1,1,0,0,0,.9-1.3c-.3-1.9,1.2-6.7,2.2-6.7C88.74,85.8,89.14,87.7,89.14,90.1Z"/><path class="cls-1" d="M36.54,83.3a4.7,4.7,0,0,0,0,3.1,5.4,5.4,0,0,1-.9,3.8c-2.7,4.1.7,7.7,5.8,6a9.85,9.85,0,0,1,4.1-.5c1.3.2,1.6-.1,1-1.1a7,7,0,0,1-.7-3.8c.1-1.5,0-1.8-.3-.8-.7,2.2-1.3,2.3-2.9.1a2.6,2.6,0,0,1-.2-3.4,4.78,4.78,0,0,0,.4-3.3C42,81.4,37.24,81.3,36.54,83.3Zm5.2.6c1,1.7-1.3,3.6-2.7,2.2a1.92,1.92,0,0,1,1.1-3.3A2.36,2.36,0,0,1,41.74,83.9Zm-1.1,7.9c2.1,2.3,1.2,3.9-1.3,2.4-1.9-1.2-2.9-4.4-1.4-4.4A6.18,6.18,0,0,1,40.64,91.8Z"/><path d="M169.14,84.9c0,3.7,8.7,11.9,12.8,11.9,2.6,0,1-1.9-3.5-4.3a20.5,20.5,0,0,1-7-5.7C170.14,85,169.14,84.1,169.14,84.9Z"/></g></g></svg>